<svg width="231" height="48" viewBox="0 0 231 48" fill="none" xmlns="http://www.w3.org/2000/svg">
<!-- Calendar Icon Background -->
<path d="M0 12.6316C0 5.65535 5.65535 0 12.6316 0H35.3684C42.3447 0 48 5.65535 48 12.6316V35.3684C48 42.3447 42.3447 48 35.3684 48H12.6316C5.65535 48 0 42.3447 0 35.3684V12.6316Z" fill="#465FFF"/>

<!-- Calendar Icon Details -->
<g filter="url(#filter0_d_calendar)">
<rect x="14" y="16" width="20" height="18" rx="2" fill="white"/>
</g>
<line x1="19" y1="14" x2="19" y2="18" stroke="white" stroke-width="2.5" stroke-linecap="round"/>
<line x1="29" y1="14" x2="29" y2="18" stroke="white" stroke-width="2.5" stroke-linecap="round"/>
<line x1="14" y1="22" x2="34" y2="22" stroke="white" stroke-width="2"/>
<circle cx="19" cy="27" r="1.8" fill="#465FFF"/>
<circle cx="24" cy="27" r="1.8" fill="#465FFF"/>
<circle cx="29" cy="27" r="1.8" fill="#465FFF"/>

<!-- Text "AgendaPro" -->
<text x="58" y="33" font-family="Inter, -apple-system, BlinkMacSystemFont, sans-serif" font-size="24" font-weight="700" fill="white" letter-spacing="-0.02em">AgendaPro</text>

<defs>
<filter id="filter0_d_calendar" x="13" y="15.5" width="22" height="20" filterUnits="userSpaceOnUse" color-interpolation-filters="sRGB">
<feFlood flood-opacity="0" result="BackgroundImageFix"/>
<feColorMatrix in="SourceAlpha" type="matrix" values="0 0 0 0 0 0 0 0 0 0 0 0 0 0 0 0 0 0 127 0" result="hardAlpha"/>
<feOffset dy="0.5"/>
<feGaussianBlur stdDeviation="0.5"/>
<feComposite in2="hardAlpha" operator="out"/>
<feColorMatrix type="matrix" values="0 0 0 0 0 0 0 0 0 0 0 0 0 0 0 0 0 0 0.12 0"/>
<feBlend mode="normal" in2="BackgroundImageFix" result="effect1_dropShadow"/>
<feBlend mode="normal" in="SourceGraphic" in2="effect1_dropShadow" result="shape"/>
</filter>
</defs>
</svg>
